<?xml version="1.0" standalone="no"?>
<!DOCTYPE svg PUBLIC "-//W3C//DTD SVG 20010904//EN"
 "http://www.w3.org/TR/2001/REC-SVG-20010904/DTD/svg10.dtd">
<svg version="1.0" xmlns="http://www.w3.org/2000/svg"
 width="826.000000pt" height="688.000000pt" viewBox="0 0 826.000000 688.000000"
 preserveAspectRatio="xMidYMid meet">

<g transform="translate(0.000000,688.000000) scale(0.100000,-0.100000)"
fill="#000000" stroke="none">
<path d="M5856 6102 c-27 -9 -67 -33 -89 -54 -32 -30 -38 -42 -32 -60 4 -13
10 -75 14 -138 8 -143 26 -183 75 -169 17 5 50 6 74 3 33 -5 42 -3 42 9 0 29
-98 38 -124 11 -15 -14 -16 -7 -16 80 0 53 2 96 4 96 3 0 16 -4 31 -10 59 -23
205 -32 293 -19 l85 13 28 -32 c28 -31 29 -36 29 -140 1 -99 2 -105 14 -76 8
17 24 38 36 47 29 20 70 159 70 237 0 72 -25 112 -96 151 -113 64 -326 89
-438 51z"/>
<path d="M2146 6033 c-127 -39 -230 -142 -264 -265 -11 -42 -10 -43 21 -27 21
12 21 12 4 -14 -19 -30 -22 -41 -7 -32 6 4 10 -5 10 -19 0 -14 5 -26 10 -26 6
0 10 -12 10 -26 0 -14 4 -23 10 -19 6 3 13 0 16 -8 3 -9 14 -12 30 -9 28 5 60
-19 77 -58 10 -21 12 -10 17 70 5 98 19 138 59 174 l20 19 -6 -52 c-6 -55 6
-68 25 -27 16 37 112 102 112 76 0 -5 -4 -12 -10 -15 -5 -3 -10 -15 -10 -26 0
-19 3 -19 38 8 20 16 54 40 74 52 21 12 46 33 57 47 10 13 21 24 24 24 10 0
37 -94 38 -129 l0 -36 15 45 c22 70 18 94 -19 127 -18 16 -42 47 -53 68 -43
83 -173 117 -298 78z"/>
<path d="M5004 5907 c-11 -30 -66 -36 -176 -20 -184 26 -315 0 -363 -73 -16
-24 -25 -29 -40 -23 -11 4 -29 8 -39 8 -18 1 -18 0 -3 -17 22 -24 21 -32 0
-33 -14 0 -13 -3 4 -11 21 -10 22 -15 17 -77 -9 -96 10 -175 51 -217 32 -32
33 -32 39 -11 3 12 6 37 6 55 0 25 8 41 33 63 17 16 37 44 43 61 6 18 21 40
35 50 23 18 27 18 69 2 25 -8 95 -21 155 -27 l110 -12 3 -54 c3 -48 1 -53 -15
-46 -10 5 -34 10 -54 12 -39 5 -66 -15 -55 -42 5 -13 16 -15 65 -9 l60 6 3
-33 c3 -33 4 -33 21 21 10 30 21 84 24 120 5 51 12 71 32 92 28 30 49 79 50
116 l1 23 -22 -21 c-27 -25 -73 -28 -64 -4 14 38 28 105 23 111 -4 3 -9 -1
-13 -10z"/>
<path d="M6120 5721 c-31 -4 -46 -11 -48 -23 -3 -18 -3 -18 131 -9 25 1 21 16
-8 29 -14 7 -27 11 -28 10 -1 0 -22 -4 -47 -7z"/>
<path d="M2404 5682 c-6 -4 -13 -14 -16 -23 -11 -29 -118 -31 -118 -3 0 10
-13 14 -44 14 -54 0 -106 -17 -88 -29 9 -5 5 -11 -13 -19 -31 -14 -32 -39 -2
-83 21 -31 28 -34 79 -37 70 -4 107 23 117 83 8 53 35 59 50 12 7 -19 22 -44
34 -56 20 -18 31 -20 69 -15 39 5 49 12 63 38 10 18 15 41 12 51 -3 15 -5 13
-6 -7 -3 -67 -98 -95 -140 -42 -23 30 -27 59 -9 70 22 14 90 22 124 14 19 -5
32 -4 28 1 -3 5 -11 9 -19 9 -7 0 -15 7 -19 15 -6 16 -81 21 -102 7z m-105
-61 c17 -11 7 -63 -17 -84 -24 -21 -96 -31 -121 -17 -24 12 -55 66 -46 80 15
24 154 40 184 21z"/>
<path d="M2193 5603 c-7 -2 -13 -9 -13 -15 0 -6 7 -8 15 -4 8 3 15 1 15 -4 0
-6 9 -10 20 -10 18 0 19 3 10 20 -11 20 -23 23 -47 13z"/>
<path d="M5843 5663 c-22 -8 -14 -32 11 -39 31 -7 46 1 46 27 0 19 -27 25 -57
12z"/>
<path d="M6113 5655 c-7 -19 -5 -22 29 -30 21 -5 29 -3 34 10 4 10 1 21 -7 26
-22 14 -49 11 -56 -6z m22 -5 c3 -5 1 -10 -4 -10 -6 0 -11 5 -11 10 0 6 2 10
4 10 3 0 8 -4 11 -10z"/>
<path d="M2435 5620 c-23 -25 -16 -33 18 -21 18 7 25 15 21 26 -8 20 -17 19
-39 -5z"/>
<path d="M3208 5531 c-100 -14 -152 -61 -182 -164 -31 -108 -78 -404 -94 -587
l-7 -85 -50 -7 c-27 -3 -77 -16 -109 -27 l-59 -21 -106 19 c-58 11 -176 32
-261 46 -85 15 -162 28 -170 31 -12 3 -15 26 -13 136 2 185 -20 238 -137 321
-58 41 -85 44 -164 24 l-49 -13 76 -37 c42 -21 87 -51 101 -68 40 -48 59 -127
52 -223 -3 -44 -10 -162 -15 -261 -5 -99 -12 -188 -16 -197 -4 -10 -21 -22
-39 -27 -24 -7 -26 -9 -8 -10 20 -1 22 -6 22 -56 l0 -55 73 5 c39 2 113 7 162
10 146 8 247 46 271 103 10 24 32 40 109 76 53 25 105 46 116 46 33 0 21 -50
-18 -76 l-33 -22 35 -4 c34 -4 36 -2 46 36 33 133 61 171 132 183 117 19 152
-69 152 -372 -1 -146 -5 -206 -18 -260 -24 -96 -61 -172 -101 -209 l-33 -32
-22 -200 c-12 -109 -23 -210 -24 -223 -2 -24 1 -25 173 -55 l175 -31 0 -294
c0 -322 0 -322 -58 -307 l-27 6 0 294 0 295 -52 10 c-29 6 -82 15 -118 21 -36
6 -72 13 -81 16 -14 4 -18 -14 -28 -123 -18 -202 -16 -229 19 -273 46 -58 67
-185 24 -149 -14 11 -15 10 -12 -11 2 -16 12 -26 28 -31 l25 -6 -27 -11 c-32
-13 -174 0 -192 18 -7 7 -10 49 -7 128 2 64 4 200 5 302 l1 185 -35 5 c-24 4
-39 1 -46 -9 -10 -13 -14 -13 -28 -2 -9 8 -19 12 -21 9 -3 -3 -5 -126 -6 -274
l0 -269 43 -8 c24 -5 47 -12 51 -16 5 -5 -1 -86 -12 -182 -41 -357 -70 -802
-74 -1144 l-2 -220 60 -12 c347 -72 884 -72 1160 0 l50 13 3 50 c7 94 -47 670
-93 998 -7 55 -13 102 -11 103 1 1 33 -10 72 -26 80 -32 168 -57 237 -67 l48
-6 -5 -57 c-3 -31 -8 -96 -11 -146 -3 -49 -15 -182 -26 -295 -23 -230 -21
-362 11 -578 11 -80 16 -154 13 -199 l-6 -73 39 -1 39 -1 -32 -14 c-36 -15
-42 -39 -24 -102 9 -31 7 -34 -47 -80 -31 -26 -69 -59 -85 -74 -28 -28 -31
-28 -165 -30 l-137 -1 185 -9 c102 -5 244 -8 315 -6 166 4 623 3 830 -2 88 -2
170 0 183 4 17 6 22 4 22 -11 0 -11 -5 -24 -12 -31 -9 -9 20 -12 133 -11 79 0
162 3 184 7 l40 8 -2 49 c-3 53 -41 224 -53 238 -3 4 -12 -10 -19 -32 -17 -57
-27 -57 -23 -1 5 60 -20 90 -73 90 -40 0 -80 -32 -71 -57 3 -8 9 -31 12 -52 6
-36 4 -38 -65 -94 -39 -31 -74 -57 -77 -57 -3 0 -37 25 -76 56 -69 56 -70 57
-64 94 3 21 9 45 12 53 3 9 -4 25 -15 36 -26 26 -26 31 -1 24 18 -5 20 0 20
56 0 48 -3 61 -15 61 -8 0 -15 3 -15 8 0 4 -9 153 -20 332 -11 179 -27 577
-35 885 -8 308 -20 643 -26 745 -9 148 -12 390 -6 525 0 11 0 61 -1 112 l-2
91 -52 -14 c-29 -7 -82 -17 -117 -20 -56 -6 -64 -5 -58 9 3 8 9 32 13 51 6 36
6 36 -30 36 -33 0 -36 -3 -47 -42 -6 -24 -13 -46 -15 -49 -4 -7 -108 11 -218
37 l-69 17 -27 61 c-15 33 -30 71 -33 83 -6 26 -18 27 145 -13 79 -20 122 -24
241 -24 l145 0 11 50 c6 28 11 53 11 55 0 3 -14 5 -31 5 -27 0 -30 3 -25 23 3
12 10 46 16 75 8 37 16 52 28 52 36 0 45 21 77 179 18 88 38 167 45 176 9 11
32 15 86 15 l74 0 0 28 c0 64 -23 161 -51 220 -23 47 -44 72 -83 101 -60 45
-113 96 -139 134 -23 34 -75 40 -57 7 20 -37 8 -83 -23 -98 -63 -31 -201 39
-262 132 -16 25 -35 46 -42 46 -6 0 -24 -11 -40 -24 -36 -30 -74 -49 -143 -71
-128 -41 -190 -91 -263 -212 -70 -115 -182 -375 -201 -469 -7 -32 -7 -32 61
-57 37 -14 95 -34 128 -43 33 -10 61 -19 63 -20 2 -1 -16 -52 -38 -112 -39
-103 -41 -113 -27 -133 15 -21 16 -20 27 22 32 120 59 211 64 216 20 21 27
-39 32 -308 7 -292 7 -294 35 -369 38 -99 63 -138 97 -150 15 -6 38 -17 52
-26 14 -8 42 -22 63 -31 20 -9 37 -21 37 -28 0 -15 -46 -36 -64 -29 -10 4 -12
-1 -9 -20 4 -21 -1 -28 -31 -42 l-36 -18 -35 42 c-38 43 -81 62 -146 62 -45 0
-80 -26 -104 -79 -15 -34 -23 -41 -47 -41 -17 0 -31 6 -35 16 -6 17 12 221 28
321 10 58 9 65 -12 100 l-24 38 -16 -105 c-10 -58 -22 -166 -29 -240 -9 -107
-16 -139 -30 -155 -20 -22 -110 -205 -110 -224 0 -6 -4 -11 -8 -11 -5 0 -14
44 -21 98 -28 213 -117 771 -125 780 -2 1 -29 -8 -62 -20 -55 -21 -75 -23
-291 -23 -127 0 -235 3 -238 7 -4 3 13 25 38 47 101 93 158 335 141 596 -12
190 -38 283 -89 323 -31 25 -24 30 55 39 58 6 63 8 75 37 7 17 16 58 19 91 6
54 4 63 -17 89 -13 16 -39 34 -58 40 -24 8 -39 22 -53 50 -17 35 -18 42 -5 65
25 44 46 38 62 -16 l14 -48 7 60 c12 96 24 129 55 159 24 23 42 29 106 37 76
8 107 21 146 60 35 35 87 20 114 -32 16 -30 37 -210 28 -239 -4 -13 -3 -13 6
0 20 31 51 175 51 238 0 38 -7 78 -16 98 -50 105 -218 168 -386 145z m1162
-1385 c112 -24 290 -49 309 -44 14 4 14 -7 1 -77 -7 -36 -17 -66 -24 -66 -52
-6 -274 28 -398 62 l-38 10 0 75 c0 67 2 75 18 70 9 -3 69 -17 132 -30z m-280
-1012 c0 -46 -3 -55 -15 -50 -8 3 -37 8 -65 12 -27 4 -50 12 -50 18 0 6 9 26
20 44 18 28 25 32 65 32 l45 0 0 -56z m51 25 c33 -23 37 -39 10 -39 -10 0 -26
11 -35 25 -27 41 -20 46 25 14z m382 -221 c4 -18 20 -98 37 -178 78 -366 109
-643 115 -1014 5 -295 21 -426 75 -619 16 -56 24 -103 19 -105 -5 -2 -9 -30
-9 -63 l0 -59 75 0 75 0 -21 -21 c-17 -17 -20 -31 -17 -69 3 -55 -7 -52 -27 6
-9 25 -15 34 -19 24 -12 -33 -36 -136 -42 -182 l-7 -48 -237 0 -238 0 -7 32
c-3 18 -15 73 -27 122 l-21 90 -23 -50 -22 -49 -1 53 c-1 44 -5 57 -28 78
l-28 26 50 -2 c28 -1 65 -1 83 -1 l33 1 -2 55 c-1 30 -6 55 -11 55 -13 0 -10
104 12 422 45 644 97 1112 155 1388 33 156 45 179 58 108z"/>
<path d="M4559 5521 c-13 -11 -22 -21 -19 -24 3 -3 36 -6 75 -8 62 -4 70 -2
73 15 5 25 -14 36 -64 36 -26 0 -51 -7 -65 -19z"/>
<path d="M1996 5513 c-6 -14 -5 -15 5 -6 7 7 10 15 7 18 -3 3 -9 -2 -12 -12z"/>
<path d="M4603 5455 c-37 -26 -29 -45 18 -45 38 0 40 2 37 27 -4 33 -24 39
-55 18z"/>
<path d="M4847 5452 c-25 -27 -21 -32 24 -32 36 0 40 2 37 23 -4 28 -39 34
-61 9z"/>
<path d="M2010 5407 c0 -13 6 -32 14 -42 13 -18 14 -17 21 14 5 24 3 36 -6 42
-22 14 -29 11 -29 -14z"/>
<path d="M2147 5309 c7 -7 15 -10 18 -7 3 3 -2 9 -12 12 -14 6 -15 5 -6 -5z"/>
<path d="M6300 5232 c0 -36 -37 -108 -70 -136 -50 -41 -126 -76 -180 -83 -41
-5 -56 -1 -94 21 -50 29 -116 116 -116 152 l0 21 -97 -17 c-154 -28 -185 -46
-228 -130 -37 -73 -145 -490 -145 -560 0 -19 8 -20 199 -20 174 0 200 -2 205
-16 8 -21 -118 -608 -139 -651 l-16 -33 -96 0 c-90 0 -97 -2 -119 -26 -13 -14
-29 -22 -35 -19 -5 4 -21 4 -33 1 l-24 -6 15 -67 c13 -65 46 -184 63 -228 8
-21 10 -21 102 -9 51 7 94 13 95 13 0 1 -1 27 -4 59 -2 31 0 91 4 132 8 69 10
75 30 73 16 -2 23 4 25 20 4 27 23 24 22 -3 0 -11 3 -20 7 -20 4 0 14 -3 22
-6 10 -3 17 3 21 20 8 33 26 34 26 2 0 -24 23 -41 41 -30 5 3 9 14 9 25 0 10
5 19 10 19 6 0 10 -11 10 -24 0 -21 16 -36 40 -36 5 0 10 9 12 20 4 28 23 25
23 -2 0 -18 7 -24 38 -29 59 -9 62 -16 48 -116 -44 -336 -55 -399 -66 -411
-10 -11 -30 -11 -119 2 -59 9 -108 16 -110 16 -2 0 -7 -11 -10 -25 -7 -26 -33
-34 -52 -15 -8 8 -14 7 -21 -2 -6 -7 -25 -139 -42 -293 -39 -343 -91 -694
-136 -920 -46 -230 -60 -321 -90 -589 -14 -126 -29 -234 -34 -240 -5 -6 -11
-27 -15 -47 -6 -34 -4 -37 21 -43 16 -3 69 -9 119 -12 l91 -7 6 33 c4 18 7 44
7 58 0 13 23 95 51 181 65 202 103 359 129 534 44 299 77 438 227 962 58 203
111 397 118 430 l13 60 1 -82 c1 -80 9 -161 56 -568 38 -334 46 -469 43 -815
-2 -297 0 -339 22 -495 13 -93 23 -183 23 -200 -1 -16 1 -49 4 -72 l4 -43 114
0 113 0 7 40 c4 21 4 47 1 58 -3 10 -1 58 4 108 6 49 15 382 20 739 8 583 18
916 36 1192 7 108 7 108 116 87 40 -8 74 -14 76 -14 2 0 0 44 -3 98 l-7 97 56
24 c76 31 157 107 187 173 21 47 24 67 24 188 0 74 -2 157 -5 184 l-5 48 34 4
c162 19 180 211 51 563 -119 324 -278 614 -361 656 -27 15 -189 45 -311 60
-53 6 -58 5 -58 -13z m95 -369 c10 -25 31 -67 46 -92 16 -25 42 -86 58 -134
l30 -88 -21 -82 c-12 -45 -25 -86 -29 -90 -3 -5 -38 12 -75 36 -38 25 -89 51
-114 57 -64 17 -113 56 -107 86 2 13 -2 29 -9 35 -18 15 -18 43 1 59 11 9 12
16 2 30 -9 15 -8 23 7 39 15 17 16 24 7 35 -24 29 -3 37 75 31 l75 -7 -7 49
c-5 39 -3 53 11 66 25 25 31 22 50 -30z m-302 -1428 c-3 -9 -8 -14 -10 -11 -3
3 -2 9 2 15 9 16 15 13 8 -4z m-116 -97 c-3 -7 -5 -2 -5 12 0 14 2 19 5 13 2
-7 2 -19 0 -25z"/>
<path d="M3230 5164 c56 -17 60 -17 36 1 -11 8 -34 15 -50 14 -28 0 -27 -2 14
-15z"/>
<path d="M3415 5170 c-4 -6 12 -9 44 -8 27 1 47 6 45 10 -7 12 -82 10 -89 -2z"/>
<path d="M1634 5078 c-42 -50 -83 -145 -90 -210 -4 -32 -11 -58 -15 -58 -5 0
-9 8 -9 18 0 27 -29 62 -51 62 -21 0 -122 -60 -134 -80 -4 -7 -11 -48 -16 -90
-5 -57 -14 -89 -32 -117 -14 -21 -39 -77 -56 -125 -17 -48 -47 -119 -66 -157
-44 -85 -45 -108 -22 -336 38 -358 59 -462 117 -562 84 -145 260 -176 388 -69
l32 28 0 -60 c0 -48 6 -71 35 -125 44 -82 50 -112 74 -384 43 -471 53 -846 26
-1012 -9 -52 -31 -156 -50 -230 -80 -324 -118 -570 -119 -778 0 -78 2 -144 5
-147 3 -3 70 -16 150 -28 171 -26 473 -32 524 -10 39 17 25 26 -76 46 -79 17
-97 31 -144 115 -13 22 -30 37 -43 39 -13 2 -26 10 -28 17 -6 14 31 350 90
820 32 257 39 291 144 710 61 242 135 523 165 625 57 193 102 393 92 409 -3 6
-18 6 -38 0 -90 -28 -195 -37 -303 -28 -177 15 -270 37 -395 92 l-50 22 73
108 c118 175 128 195 128 257 0 30 -4 60 -8 65 -4 6 -38 10 -77 11 -154 1
-180 47 -215 374 -6 58 -16 110 -22 117 -6 7 -12 101 -16 221 -6 235 6 346 43
430 13 28 22 52 20 52 -2 0 -16 -15 -31 -32z m-144 -263 c11 -13 10 -18 -9
-32 -13 -8 -50 -38 -82 -65 -61 -51 -72 -48 -45 15 15 36 37 58 81 81 37 20
40 20 55 1z"/>
<path d="M3176 5091 c-3 -5 4 -11 16 -14 13 -4 26 -1 30 6 6 9 8 9 8 -1 0 -7
5 -10 11 -6 8 4 7 9 -2 15 -18 11 -56 11 -63 0z"/>
<path d="M3427 5093 c-14 -13 -6 -23 18 -23 14 0 25 5 25 11 0 5 4 8 9 4 5 -3
12 -1 16 5 7 11 -57 14 -68 3z"/>
<path d="M3505 4910 c-14 -23 -44 -58 -66 -79 l-40 -39 17 -41 c13 -34 26 -45
82 -73 117 -58 132 -126 92 -393 -12 -73 -27 -157 -35 -187 -22 -78 -37 -172
-33 -210 3 -32 4 -31 40 38 73 138 124 469 100 637 -10 66 -14 75 -52 109
l-42 37 -5 121 c-7 135 -15 147 -58 80z"/>
<path d="M3310 4899 c0 -11 46 -23 59 -14 21 13 10 23 -24 23 -19 0 -35 -4
-35 -9z"/>
<path d="M2727 4333 c-4 -3 -7 -11 -7 -17 0 -6 5 -5 12 2 6 6 9 14 7 17 -3 3
-9 2 -12 -2z"/>
<path d="M2707 4239 c4 -13 8 -18 11 -10 2 7 -1 18 -6 23 -8 8 -9 4 -5 -13z"/>
<path d="M2680 4185 c-26 -28 -71 -33 -144 -14 -39 10 -47 8 -92 -18 -58 -34
-118 -63 -319 -154 -89 -41 -152 -75 -157 -86 -11 -30 -9 -73 5 -77 133 -39
519 -139 538 -139 24 0 27 -5 48 -98 22 -99 66 -203 99 -233 18 -16 19 -6 26
301 3 175 10 367 16 428 5 60 8 110 6 112 -1 2 -13 -8 -26 -22z"/>
<path d="M2608 3343 c7 -3 16 -2 19 1 4 3 -2 6 -13 5 -11 0 -14 -3 -6 -6z"/>
<path d="M5170 3222 c0 -20 28 -30 128 -44 84 -12 102 -12 102 -1 0 7 -3 13
-7 13 -30 2 -191 29 -205 35 -10 4 -18 3 -18 -3z"/>
<path d="M6335 880 c-13 -15 -18 -35 -18 -73 l1 -52 -22 49 -22 49 -17 -64
c-28 -106 -47 -208 -41 -222 7 -19 72 -27 219 -27 117 0 122 1 143 25 17 19
18 25 7 25 -8 0 -15 7 -15 16 0 9 -29 46 -64 82 l-64 67 11 59 c10 53 9 60 -8
72 -29 21 -89 18 -110 -6z"/>
<path d="M1650 601 c0 -5 24 -14 53 -19 148 -27 216 -34 370 -39 175 -6 264 4
287 33 10 11 47 14 174 16 l161 2 -154 3 c-143 3 -157 2 -200 -19 -43 -21 -58
-23 -216 -22 -122 0 -211 7 -314 23 -79 12 -148 24 -153 27 -4 3 -8 1 -8 -5z"/>
<path d="M3308 603 c12 -2 30 -2 40 0 9 3 -1 5 -23 4 -22 0 -30 -2 -17 -4z"/>
<path d="M5783 593 c59 -2 155 -2 215 0 59 1 10 3 -108 3 -118 0 -167 -2 -107
-3z"/>
<path d="M4761 574 c0 -11 3 -14 6 -6 3 7 2 16 -1 19 -3 4 -6 -2 -5 -13z"/>
<path d="M6618 583 c6 -2 18 -2 25 0 6 3 1 5 -13 5 -14 0 -19 -2 -12 -5z"/>
<path d="M1417 573 c18 -2 50 -2 70 0 21 2 7 4 -32 4 -38 0 -55 -2 -38 -4z"/>
<path d="M6878 573 c23 -2 59 -2 80 0 20 2 1 4 -43 4 -44 0 -61 -2 -37 -4z"/>
<path d="M7143 563 c15 -2 39 -2 55 0 15 2 2 4 -28 4 -30 0 -43 -2 -27 -4z"/>
<path d="M993 553 c9 -2 23 -2 30 0 6 3 -1 5 -18 5 -16 0 -22 -2 -12 -5z"/>
<path d="M7275 550 c-27 -7 -28 -8 -5 -8 14 -1 43 3 65 7 l40 9 -35 0 c-19 0
-48 -4 -65 -8z"/>
<path d="M3968 533 c12 -2 30 -2 40 0 9 3 -1 5 -23 4 -22 0 -30 -2 -17 -4z"/>
<path d="M4173 533 c15 -2 37 -2 50 0 12 2 0 4 -28 4 -27 0 -38 -2 -22 -4z"/>
<path d="M4868 533 c12 -2 30 -2 40 0 9 3 -1 5 -23 4 -22 0 -30 -2 -17 -4z"/>
<path d="M7073 533 c15 -2 37 -2 50 0 12 2 0 4 -28 4 -27 0 -38 -2 -22 -4z"/>
<path d="M1523 523 c26 -2 67 -2 90 0 23 2 2 3 -48 3 -49 0 -68 -1 -42 -3z"/>
<path d="M6653 523 c9 -2 23 -2 30 0 6 3 -1 5 -18 5 -16 0 -22 -2 -12 -5z"/>
<path d="M6758 523 c23 -2 59 -2 80 0 20 2 1 4 -43 4 -44 0 -61 -2 -37 -4z"/>
<path d="M1953 513 c37 -2 97 -2 135 0 37 2 6 3 -68 3 -74 0 -105 -1 -67 -3z"/>
<path d="M6248 513 c46 -2 118 -2 160 0 42 1 5 3 -83 3 -88 0 -123 -2 -77 -3z"/>
<path d="M2633 503 c42 -2 112 -2 155 0 42 1 7 3 -78 3 -85 0 -120 -2 -77 -3z"/>
<path d="M2933 503 c31 -2 83 -2 115 0 31 2 5 3 -58 3 -63 0 -89 -1 -57 -3z"/>
<path d="M5358 503 c89 -2 235 -2 325 0 89 1 16 3 -163 3 -179 0 -252 -2 -162
-3z"/>
</g>
</svg>
